# xmcd
#
# Track frame offsets: 
#        150
#        13397
#        27113
#        40665
#        52909
#        65956
#        77173
#        96921
#        109641
#        123163
#        139586
#        153681
#        165236
#        175657
#        188088
#
# Disc length: 2670 seconds
#
# Revision: 0
# Processed by: cddbd v1.5.2PL0 Copyright (c) Steve Scherf et al.
# Submitted via: ExactAudioCopy v1.1
#
DISCID=bc0a6c0f
DTITLE=Various Artist - Various ‎– Simply Blues
DYEAR=2012
DGENRE=Blues
TTITLE0=Sonny Terry And Brownie McGhee - Cross Road Blues
TTITLE1=Memphis Minnie - Me And My Chauffeur Blues
TTITLE2=Memphis Minnie - My Butcher Man
TTITLE3=Sonny Terry - Whooping The Blues
TTITLE4=J.B. Lenoir - Einsenhower Blues
TTITLE5=J.B. Lenoir - Natural Man
TTITLE6=Josh White - Free An Equal Blues
TTITLE7=Josh White - He Never Said A Mumblin' Word
TTITLE8=Josh White - Hard Times Blues
TTITLE9=Tommy Johnson - Canned Heat Blues
TTITLE10=Leadbelly - Midnight Special
TTITLE11=Leadbelly - Rock Island Line
TTITLE12=Sonny Terry - Hootin' Blues
TTITLE13=Josh White - Defense Factory Blues
TTITLE14=Josh White - Lonesome Road
EXTD=
EXTT0=
EXTT1=
EXTT2=
EXTT3=
EXTT4=
EXTT5=
EXTT6=
EXTT7=
EXTT8=
EXTT9=
EXTT10=
EXTT11=
EXTT12=
EXTT13=
EXTT14=
PLAYORDER=
